<?xml version="1.0" encoding="UTF-8" standalone="no"?>
<!DOCTYPE svg PUBLIC "-//W3C//DTD SVG 1.1//EN"
 "http://www.w3.org/Graphics/SVG/1.1/DTD/svg11.dtd">
<!-- Generated by graphviz version 2.43.0 (0)
 -->
<!-- Title: Architecture Pages: 1 -->
<svg width="932pt" height="660pt"
 viewBox="0.00 0.00 932.00 660.00" xmlns="http://www.w3.org/2000/svg" xmlns:xlink="http://www.w3.org/1999/xlink">
<g id="graph0" class="graph" transform="scale(1 1) rotate(0) translate(4 656)">
<title>Architecture</title>
<polygon fill="#0d1117" stroke="transparent" points="-4,4 -4,-656 928,-656 928,4 -4,4"/>
<g id="clust1" class="cluster">
<title>cluster_user</title>
<polygon fill="#0d1117" stroke="#238636" stroke-dasharray="5,2" points="387,-8 387,-91 541,-91 541,-8 387,-8"/>
<text text-anchor="middle" x="464" y="-75.8" font-family="Helvetica,Arial,sans-serif" font-size="14.00" fill="#ff7b72">User Interface</text>
</g>
<g id="clust2" class="cluster">
<title>cluster_hermes</title>
<polygon fill="#0d1117" stroke="#238636" stroke-dasharray="5,2" points="367,-187 367,-454 916,-454 916,-187 367,-187"/>
<text text-anchor="middle" x="641.5" y="-438.8" font-family="Helvetica,Arial,sans-serif" font-size="14.00" fill="#ff7b72">Hermes Agent CLI</text>
</g>
<g id="clust3" class="cluster">
<title>cluster_ollama</title>
<polygon fill="#0d1117" stroke="#238636" stroke-dasharray="5,2" points="8,-462 8,-644 560,-644 560,-462 8,-462"/>
<text text-anchor="middle" x="284" y="-628.8" font-family="Helvetica,Arial,sans-serif" font-size="14.00" fill="#ff7b72">Local Hardware</text>
</g>
<!-- Terminal -->
<g id="node1" class="node">
<title>Terminal</title>
<path fill="#161b22" stroke="#d2a8ff" stroke-width="2" d="M521,-60C521,-60 407,-60 407,-60 401,-60 395,-54 395,-48 395,-48 395,-28 395,-28 395,-22 401,-16 407,-16 407,-16 521,-16 521,-16 527,-16 533,-22 533,-28 533,-28 533,-48 533,-48 533,-54 527,-60 521,-60"/>
<text text-anchor="middle" x="464" y="-41.8" font-family="Helvetica,Arial,sans-serif" font-size="14.00" fill="#c9d1d9">Terminal (ZSH) </text>
<text text-anchor="middle" x="464" y="-26.8" font-family="Helvetica,Arial,sans-serif" font-size="14.00" fill="#c9d1d9"> /model command</text>
</g>
<!-- ModelSwitch -->
<g id="node2" class="node">
<title>ModelSwitch</title>
<path fill="#161b22" stroke="#39d353" stroke-width="2" d="M541,-349C541,-349 387,-349 387,-349 381,-349 375,-343 375,-337 375,-337 375,-317 375,-317 375,-311 381,-305 387,-305 387,-305 541,-305 541,-305 547,-305 553,-311 553,-317 553,-317 553,-337 553,-337 553,-343 547,-349 541,-349"/>
<text text-anchor="middle" x="464" y="-330.8" font-family="Helvetica,Arial,sans-serif" font-size="14.00" fill="#c9d1d9">model_switch.py </text>
<text text-anchor="middle" x="464" y="-315.8" font-family="Helvetica,Arial,sans-serif" font-size="14.00" fill="#c9d1d9"> (Custom Provider Shim)</text>
</g>
<!-- Terminal&#45;&gt;ModelSwitch -->
<g id="edge1" class="edge">
<title>Terminal&#45;&gt;ModelSwitch</title>
<path fill="none" stroke="#58a6ff" stroke-width="1.5" d="M410.47,-60.09C339.19,-92.9 227,-158.41 271.5,-230.5 292.81,-265.02 330.65,-287.62 367.18,-302.2"/>
<polygon fill="#58a6ff" stroke="#58a6ff" stroke-width="1.5" points="366.47,-304.93 374.94,-305.19 368.48,-299.7 366.47,-304.93"/>
<text text-anchor="middle" x="272.5" y="-222.5" font-family="Helvetica,Arial,sans-serif" font-size="10.00" fill="#79c0ff">Invokes /model</text>
</g>
<!-- TerminalMenu -->
<g id="node3" class="node">
<title>TerminalMenu</title>
<path fill="#161b22" stroke="#39d353" stroke-width="2" d="M896,-239C896,-239 762,-239 762,-239 756,-239 750,-233 750,-227 750,-227 750,-207 750,-207 750,-201 756,-195 762,-195 762,-195 896,-195 896,-195 902,-195 908,-201 908,-207 908,-207 908,-227 908,-227 908,-233 902,-239 896,-239"/>
<text text-anchor="middle" x="829" y="-220.8" font-family="Helvetica,Arial,sans-serif" font-size="14.00" fill="#c9d1d9">Interactive Menu </text>
<text text-anchor="middle" x="829" y="-205.8" font-family="Helvetica,Arial,sans-serif" font-size="14.00" fill="#c9d1d9"> (simple_term_menu)</text>
</g>
<!-- Terminal&#45;&gt;TerminalMenu -->
<g id="edge8" class="edge">
<title>Terminal&#45;&gt;TerminalMenu</title>
<path fill="none" stroke="#58a6ff" stroke-width="1.5" d="M533.11,-43.45C583.75,-49.88 653.1,-63.82 707,-94 748.86,-117.44 785.7,-159.69 807.42,-188.05"/>
<polygon fill="#58a6ff" stroke="#58a6ff" stroke-width="1.5" points="805.3,-189.88 812.35,-194.58 809.77,-186.51 805.3,-189.88"/>
<text text-anchor="middle" x="651.5" y="-108" font-family="Helvetica,Arial,sans-serif" font-size="10.00" fill="#79c0ff">User Selects Model </text>
<text text-anchor="middle" x="651.5" y="-97" font-family="Helvetica,Arial,sans-serif" font-size="10.00" fill="#79c0ff"> (e.g. qwen2.5&#45;coder:14b)</text>
</g>
<!-- ModelSwitch&#45;&gt;TerminalMenu -->
<g id="edge6" class="edge">
<title>ModelSwitch&#45;&gt;TerminalMenu</title>
<path fill="none" stroke="#58a6ff" stroke-width="1.5" d="M538.02,-304.87C598.58,-286.52 684.58,-260.46 747.19,-241.49"/>
<polygon fill="#58a6ff" stroke="#58a6ff" stroke-width="1.5" points="748.25,-244.09 755.09,-239.09 746.63,-238.73 748.25,-244.09"/>
<text text-anchor="middle" x="651.5" y="-288" font-family="Helvetica,Arial,sans-serif" font-size="10.00" fill="#79c0ff">Populates Choices</text>
</g>
<!-- ConfigYAML -->
<g id="node4" class="node">
<title>ConfigYAML</title>
<path fill="#161b22" stroke="#f0883e" stroke-width="2" d="M879.5,-384.96C879.5,-388.02 856.87,-390.5 829,-390.5 801.13,-390.5 778.5,-388.02 778.5,-384.96 778.5,-384.96 778.5,-335.04 778.5,-335.04 778.5,-331.98 801.13,-329.5 829,-329.5 856.87,-329.5 879.5,-331.98 879.5,-335.04 879.5,-335.04 879.5,-384.96 879.5,-384.96"/>
<path fill="none" stroke="#f0883e" stroke-width="2" d="M879.5,-384.96C879.5,-381.9 856.87,-379.41 829,-379.41 801.13,-379.41 778.5,-381.9 778.5,-384.96"/>
<text text-anchor="middle" x="829" y="-363.8" font-family="Helvetica,Arial,sans-serif" font-size="14.00" fill="#c9d1d9">config.yaml </text>
<text text-anchor="middle" x="829" y="-348.8" font-family="Helvetica,Arial,sans-serif" font-size="14.00" fill="#c9d1d9"> (model: &quot;&quot;)</text>
</g>
<!-- ModelSwitch&#45;&gt;ConfigYAML -->
<g id="edge2" class="edge">
<title>ModelSwitch&#45;&gt;ConfigYAML</title>
<path fill="none" stroke="#58a6ff" stroke-width="1.5" d="M553.05,-320.7C599.12,-318.9 656.33,-319.02 707,-326 728.09,-328.91 750.67,-334.53 770.55,-340.39"/>
<polygon fill="#58a6ff" stroke="#58a6ff" stroke-width="1.5" points="769.85,-343.1 778.32,-342.73 771.46,-337.74 769.85,-343.1"/>
<text text-anchor="middle" x="651.5" y="-329" font-family="Helvetica,Arial,sans-serif" font-size="10.00" fill="#79c0ff">Reads Custom Providers</text>
</g>
<!-- OllamaServer -->
<g id="node5" class="node">
<title>OllamaServer</title>
<path fill="#161b22" stroke="#a5d6ff" stroke-width="2" d="M158,-514C158,-514 28,-514 28,-514 22,-514 16,-508 16,-502 16,-502 16,-482 16,-482 16,-476 22,-470 28,-470 28,-470 158,-470 158,-470 164,-470 170,-476 170,-482 170,-482 170,-502 170,-502 170,-508 164,-514 158,-514"/>
<text text-anchor="middle" x="93" y="-495.8" font-family="Helvetica,Arial,sans-serif" font-size="14.00" fill="#c9d1d9">Ollama API </text>
<text text-anchor="middle" x="93" y="-480.8" font-family="Helvetica,Arial,sans-serif" font-size="14.00" fill="#c9d1d9"> (localhost:11434/v1)</text>
</g>
<!-- ModelSwitch&#45;&gt;OllamaServer -->
<g id="edge4" class="edge">
<title>ModelSwitch&#45;&gt;OllamaServer</title>
<path fill="none" stroke="#58a6ff" stroke-width="1.5" d="M413.62,-349.08C345.5,-379.54 222.98,-434.32 151.04,-466.49"/>
<polygon fill="#58a6ff" stroke="#58a6ff" stroke-width="1.5" points="149.54,-464.1 143.38,-469.92 151.83,-469.21 149.54,-464.1"/>
<text text-anchor="middle" x="272.5" y="-452" font-family="Helvetica,Arial,sans-serif" font-size="10.00" fill="#79c0ff">HTTP GET /models </text>
<text text-anchor="middle" x="272.5" y="-441" font-family="Helvetica,Arial,sans-serif" font-size="10.00" fill="#79c0ff"> (Probes Catalog)</text>
</g>
<!-- TerminalMenu&#45;&gt;Terminal -->
<g id="edge7" class="edge">
<title>TerminalMenu&#45;&gt;Terminal</title>
<path fill="none" stroke="#58a6ff" stroke-width="1.5" d="M821.61,-194.85C808.24,-153.19 772.97,-64.09 707,-28 656.67,-0.46 591.24,-5.12 541.1,-15.48"/>
<polygon fill="#58a6ff" stroke="#58a6ff" stroke-width="1.5" points="540.42,-12.76 533.19,-17.18 541.6,-18.23 540.42,-12.76"/>
<text text-anchor="middle" x="651.5" y="-31" font-family="Helvetica,Arial,sans-serif" font-size="10.00" fill="#79c0ff">Renders UI</text>
</g>
<!-- TerminalMenu&#45;&gt;OllamaServer -->
<g id="edge9" class="edge">
<title>TerminalMenu&#45;&gt;OllamaServer</title>
<path fill="none" stroke="#58a6ff" stroke-width="1.5" d="M764.87,-194.95C645.71,-157.59 384.28,-96.37 213,-210 126.51,-267.38 102.73,-401.35 96.31,-461.64"/>
<polygon fill="#58a6ff" stroke="#58a6ff" stroke-width="1.5" points="93.52,-461.41 95.52,-469.65 99.09,-461.96 93.52,-461.41"/>
<text text-anchor="middle" x="464" y="-154" font-family="Helvetica,Arial,sans-serif" font-size="10.00" fill="#79c0ff">POST /chat/completions</text>
</g>
<!-- ConfigYAML&#45;&gt;ModelSwitch -->
<g id="edge3" class="edge">
<title>ConfigYAML&#45;&gt;ModelSwitch</title>
<path fill="none" stroke="#58a6ff" stroke-width="1.5" d="M778.22,-355.51C731.24,-351.27 658.83,-344.72 596,-339 584.73,-337.97 572.91,-336.89 561.18,-335.82"/>
<polygon fill="#58a6ff" stroke="#58a6ff" stroke-width="1.5" points="561.3,-333.02 553.08,-335.08 560.79,-338.6 561.3,-333.02"/>
<text text-anchor="middle" x="651.5" y="-362" font-family="Helvetica,Arial,sans-serif" font-size="10.00" fill="#79c0ff">Returns &#39;Local Ollama&#39; </text>
<text text-anchor="middle" x="651.5" y="-351" font-family="Helvetica,Arial,sans-serif" font-size="10.00" fill="#79c0ff"> (Empty Model Field)</text>
</g>
<!-- OllamaServer&#45;&gt;Terminal -->
<g id="edge12" class="edge">
<title>OllamaServer&#45;&gt;Terminal</title>
<path fill="none" stroke="#39d353" stroke-width="1.5" stroke-dasharray="1,5" d="M94.48,-469.69C97.09,-406.05 113.31,-221.71 213,-121 259,-74.53 331.59,-54.08 386.73,-45.08"/>
<polygon fill="#39d353" stroke="#39d353" stroke-width="1.5" points="387.26,-47.83 394.73,-43.83 386.4,-42.3 387.26,-47.83"/>
<text text-anchor="middle" x="272.5" y="-124" font-family="Helvetica,Arial,sans-serif" font-size="10.00" fill="#79c0ff">Streams Output</text>
</g>
<!-- OllamaServer&#45;&gt;ModelSwitch -->
<g id="edge5" class="edge">
<title>OllamaServer&#45;&gt;ModelSwitch</title>
<path fill="none" stroke="#58a6ff" stroke-width="1.5" d="M107.75,-469.6C127.22,-440.04 165.74,-388.87 213,-364 259.99,-339.28 318.42,-329.66 366.97,-326.39"/>
<polygon fill="#58a6ff" stroke="#58a6ff" stroke-width="1.5" points="367.17,-329.18 374.98,-325.9 366.83,-323.59 367.17,-329.18"/>
<text text-anchor="middle" x="272.5" y="-367" font-family="Helvetica,Arial,sans-serif" font-size="10.00" fill="#79c0ff">JSON Array of 27+ Models</text>
</g>
<!-- GPU -->
<g id="node6" class="node">
<title>GPU</title>
<polygon fill="#161b22" stroke="#ff7b72" stroke-width="2" points="552,-581 376,-581 376,-577 372,-577 372,-573 376,-573 376,-545 372,-545 372,-541 376,-541 376,-537 552,-537 552,-581"/>
<polyline fill="none" stroke="#ff7b72" stroke-width="2" points="376,-577 380,-577 380,-573 376,-573 "/>
<polyline fill="none" stroke="#ff7b72" stroke-width="2" points="376,-545 380,-545 380,-541 376,-541 "/>
<text text-anchor="middle" x="464" y="-562.8" font-family="Helvetica,Arial,sans-serif" font-size="14.00" fill="#c9d1d9">NVIDIA RTX 3080/3060 </text>
<text text-anchor="middle" x="464" y="-547.8" font-family="Helvetica,Arial,sans-serif" font-size="14.00" fill="#c9d1d9"> (Local Inference)</text>
</g>
<!-- OllamaServer&#45;&gt;GPU -->
<g id="edge10" class="edge">
<title>OllamaServer&#45;&gt;GPU</title>
<path fill="none" stroke="#58a6ff" stroke-width="1.5" d="M170.14,-501.35C217.01,-507.56 278.2,-516.5 332,-527 344.27,-529.4 357.13,-532.19 369.79,-535.1"/>
<polygon fill="#58a6ff" stroke="#58a6ff" stroke-width="1.5" points="369.21,-537.84 377.64,-536.93 370.48,-532.39 369.21,-537.84"/>
<text text-anchor="middle" x="272.5" y="-530" font-family="Helvetica,Arial,sans-serif" font-size="10.00" fill="#79c0ff">Executes Inference</text>
</g>
<!-- GPU&#45;&gt;OllamaServer -->
<g id="edge11" class="edge">
<title>GPU&#45;&gt;OllamaServer</title>
<path fill="none" stroke="#58a6ff" stroke-width="1.5" d="M375.81,-558.92C327.32,-557.24 266.19,-552.43 213,-540 190.69,-534.78 167.09,-526.01 146.85,-517.38"/>
<polygon fill="#58a6ff" stroke="#58a6ff" stroke-width="1.5" points="147.72,-514.71 139.27,-514.09 145.49,-519.84 147.72,-514.71"/>
<text text-anchor="middle" x="272.5" y="-559" font-family="Helvetica,Arial,sans-serif" font-size="10.00" fill="#79c0ff">Returns Tokens</text>
</g>
</g>
</svg>
